<svg width="769" height="307" viewBox="0 0 769 307" fill="none" xmlns="http://www.w3.org/2000/svg">
<path d="M40.7151 213.964H71.4991V215H39.5311V166.16H40.7151V213.964ZM102.503 190.136C102.503 186.485 101.491 183.599 99.4688 181.478C97.4461 179.357 94.5354 178.296 90.7368 178.296C87.6288 178.296 84.9154 178.987 82.5968 180.368C80.3274 181.7 78.6254 183.92 77.4908 187.028L76.5288 186.288C77.6634 183.229 79.4394 180.96 81.8568 179.48C84.3234 178 87.2834 177.26 90.7368 177.26C93.4994 177.26 95.8428 177.778 97.7668 178.814C99.6908 179.801 101.146 181.256 102.133 183.18C103.169 185.104 103.687 187.423 103.687 190.136V209.228C103.687 212.78 105.142 214.556 108.053 214.556C109.138 214.556 109.977 214.359 110.569 213.964L110.495 215C109.804 215.395 108.916 215.592 107.831 215.592C107.091 215.592 106.301 215.419 105.463 215.074C104.624 214.729 103.909 214.087 103.317 213.15C102.774 212.163 102.503 210.708 102.503 208.784V205.38L103.021 204.936C102.675 207.353 101.713 209.376 100.135 211.004C98.6054 212.583 96.7308 213.767 94.5108 214.556C92.3401 215.345 90.1201 215.74 87.8508 215.74C85.3841 215.74 83.2628 215.395 81.4868 214.704C79.7108 213.964 78.3541 212.928 77.4168 211.596C76.4794 210.264 76.0108 208.636 76.0108 206.712C76.0108 203.949 76.9234 201.779 78.7488 200.2C80.6234 198.621 83.2628 197.511 86.6668 196.87L102.725 193.762V194.798L87.4808 197.758C84.0274 198.399 81.4374 199.46 79.7108 200.94C78.0334 202.371 77.1948 204.245 77.1948 206.564C77.1948 209.179 78.1074 211.201 79.9328 212.632C81.8074 214.013 84.4961 214.704 87.9988 214.704C89.4788 214.704 91.0328 214.482 92.6608 214.038C94.3381 213.594 95.9168 212.903 97.3968 211.966C98.9261 210.979 100.159 209.746 101.097 208.266C102.034 206.737 102.503 204.911 102.503 202.79V190.136ZM113.499 215V213.964L137.993 182.662L140.953 179.036H135.921H112.907V178H142.359V179.036L119.271 208.858L115.053 213.964H121.121H143.543V215H113.499ZM148.404 215V213.964L172.898 182.662L175.858 179.036H170.826H147.812V178H177.264V179.036L154.176 208.858L149.958 213.964H156.026H178.448V215H148.404ZM210.54 190.136C210.54 186.485 209.529 183.599 207.506 181.478C205.483 179.357 202.573 178.296 198.774 178.296C195.666 178.296 192.953 178.987 190.634 180.368C188.365 181.7 186.663 183.92 185.528 187.028L184.566 186.288C185.701 183.229 187.477 180.96 189.894 179.48C192.361 178 195.321 177.26 198.774 177.26C201.537 177.26 203.88 177.778 205.804 178.814C207.728 179.801 209.183 181.256 210.17 183.18C211.206 185.104 211.724 187.423 211.724 190.136V209.228C211.724 212.78 213.179 214.556 216.09 214.556C217.175 214.556 218.014 214.359 218.606 213.964L218.532 215C217.841 215.395 216.953 215.592 215.868 215.592C215.128 215.592 214.339 215.419 213.5 215.074C212.661 214.729 211.946 214.087 211.354 213.15C210.811 212.163 210.54 210.708 210.54 208.784V205.38L211.058 204.936C210.713 207.353 209.751 209.376 208.172 211.004C206.643 212.583 204.768 213.767 202.548 214.556C200.377 215.345 198.157 215.74 195.888 215.74C193.421 215.74 191.3 215.395 189.524 214.704C187.748 213.964 186.391 212.928 185.454 211.596C184.517 210.264 184.048 208.636 184.048 206.712C184.048 203.949 184.961 201.779 186.786 200.2C188.661 198.621 191.3 197.511 194.704 196.87L210.762 193.762V194.798L195.518 197.758C192.065 198.399 189.475 199.46 187.748 200.94C186.071 202.371 185.232 204.245 185.232 206.564C185.232 209.179 186.145 211.201 187.97 212.632C189.845 214.013 192.533 214.704 196.036 214.704C197.516 214.704 199.07 214.482 200.698 214.038C202.375 213.594 203.954 212.903 205.434 211.966C206.963 210.979 208.197 209.746 209.134 208.266C210.071 206.737 210.54 204.911 210.54 202.79V190.136ZM224.94 215V178H226.124V187.62C226.963 184.709 228.443 182.267 230.564 180.294C232.686 178.271 235.251 177.26 238.26 177.26C239.592 177.26 240.678 177.433 241.516 177.778C242.355 178.074 243.021 178.493 243.514 179.036L242.848 179.924C242.355 179.431 241.788 179.036 241.146 178.74C240.505 178.444 239.494 178.296 238.112 178.296C235.843 178.296 233.796 179.036 231.97 180.516C230.145 181.947 228.714 183.821 227.678 186.14C226.642 188.459 226.124 190.901 226.124 193.466V215H224.94ZM262.793 177.26C266.197 177.26 269.182 178.025 271.747 179.554C274.362 181.083 276.384 183.303 277.815 186.214C279.295 189.075 280.035 192.504 280.035 196.5C280.035 200.496 279.295 203.949 277.815 206.86C276.384 209.721 274.362 211.917 271.747 213.446C269.182 214.975 266.197 215.74 262.793 215.74C259.389 215.74 256.38 214.975 253.765 213.446C251.2 211.917 249.177 209.721 247.697 206.86C246.217 203.949 245.477 200.496 245.477 196.5C245.477 192.504 246.217 189.075 247.697 186.214C249.177 183.303 251.2 181.083 253.765 179.554C256.38 178.025 259.389 177.26 262.793 177.26ZM262.793 178.296C259.636 178.296 256.848 179.036 254.431 180.516C252.014 181.947 250.114 184.019 248.733 186.732C247.352 189.445 246.661 192.701 246.661 196.5C246.661 200.249 247.352 203.505 248.733 206.268C250.114 208.981 252.014 211.078 254.431 212.558C256.848 213.989 259.636 214.704 262.793 214.704C265.95 214.704 268.738 213.989 271.155 212.558C273.572 211.078 275.447 208.981 276.779 206.268C278.16 203.505 278.851 200.249 278.851 196.5C278.851 192.701 278.16 189.445 276.779 186.732C275.447 184.019 273.572 181.947 271.155 180.516C268.738 179.036 265.95 178.296 262.793 178.296ZM292.509 168.01V205.676C292.509 208.636 293.126 210.881 294.359 212.41C295.593 213.939 297.541 214.704 300.205 214.704C301.488 214.704 302.672 214.482 303.757 214.038C304.843 213.594 305.829 212.903 306.717 211.966L307.309 212.928C306.569 213.717 305.558 214.383 304.275 214.926C303.042 215.469 301.685 215.74 300.205 215.74C298.232 215.74 296.579 215.37 295.247 214.63C293.915 213.841 292.929 212.706 292.287 211.226C291.646 209.697 291.325 207.847 291.325 205.676V168.38L292.509 168.01ZM306.791 178V179.036H283.925V178H306.791ZM316.863 168.01V205.676C316.863 208.636 317.48 210.881 318.713 212.41C319.946 213.939 321.895 214.704 324.559 214.704C325.842 214.704 327.026 214.482 328.111 214.038C329.196 213.594 330.183 212.903 331.071 211.966L331.663 212.928C330.923 213.717 329.912 214.383 328.629 214.926C327.396 215.469 326.039 215.74 324.559 215.74C322.586 215.74 320.933 215.37 319.601 214.63C318.269 213.841 317.282 212.706 316.641 211.226C316 209.697 315.679 207.847 315.679 205.676V168.38L316.863 168.01ZM331.145 178V179.036H308.279V178H331.145ZM338.7 170.748C338.207 170.748 337.812 170.6 337.516 170.304C337.22 170.008 337.072 169.613 337.072 169.12C337.072 168.627 337.22 168.232 337.516 167.936C337.812 167.64 338.207 167.492 338.7 167.492C339.194 167.492 339.588 167.64 339.884 167.936C340.18 168.232 340.328 168.627 340.328 169.12C340.328 169.613 340.18 170.008 339.884 170.304C339.588 170.6 339.194 170.748 338.7 170.748ZM339.292 178V215H338.108V178H339.292ZM383.677 215.74C381.063 215.74 378.695 215.321 376.573 214.482C374.452 213.594 372.775 212.336 371.541 210.708C370.308 209.031 369.691 207.033 369.691 204.714C369.691 202.79 370.012 201.088 370.653 199.608C371.295 198.128 372.207 196.771 373.391 195.538C374.575 194.305 375.981 193.145 377.609 192.06C379.237 190.925 381.038 189.766 383.011 188.582L383.381 188.36C385.651 187.028 387.673 185.745 389.449 184.512C391.275 183.279 392.705 181.873 393.741 180.294C394.827 178.715 395.369 176.767 395.369 174.448C395.369 172.129 394.58 170.279 393.001 168.898C391.423 167.467 389.301 166.752 386.637 166.752C383.875 166.752 381.655 167.566 379.977 169.194C378.3 170.773 377.461 172.894 377.461 175.558C377.461 176.742 377.609 177.827 377.905 178.814C378.201 179.751 378.769 180.886 379.607 182.218C380.446 183.55 381.679 185.301 383.307 187.472C384.935 189.643 387.081 192.504 389.745 196.056C392.656 199.855 395.098 202.987 397.071 205.454C399.045 207.871 400.722 209.771 402.103 211.152C403.485 212.484 404.718 213.421 405.803 213.964C406.938 214.507 408.073 214.778 409.207 214.778L409.133 215.74C407.801 215.74 406.519 215.444 405.285 214.852C404.052 214.26 402.695 213.249 401.215 211.818C399.785 210.387 398.083 208.463 396.109 206.046C394.185 203.579 391.842 200.521 389.079 196.87C386.563 193.565 384.467 190.851 382.789 188.73C381.161 186.559 379.854 184.734 378.867 183.254C377.93 181.774 377.264 180.467 376.869 179.332C376.475 178.148 376.277 176.89 376.277 175.558C376.277 173.535 376.697 171.809 377.535 170.378C378.423 168.898 379.632 167.763 381.161 166.974C382.74 166.135 384.565 165.716 386.637 165.716C388.66 165.716 390.411 166.086 391.891 166.826C393.371 167.517 394.506 168.528 395.295 169.86C396.134 171.143 396.553 172.672 396.553 174.448C396.553 176.915 396.011 179.011 394.925 180.738C393.84 182.415 392.36 183.895 390.485 185.178C388.66 186.461 386.588 187.793 384.269 189.174L383.899 189.396C381.383 190.876 379.139 192.331 377.165 193.762C375.192 195.143 373.638 196.697 372.503 198.424C371.418 200.151 370.875 202.247 370.875 204.714C370.875 206.786 371.418 208.587 372.503 210.116C373.638 211.596 375.167 212.731 377.091 213.52C379.015 214.309 381.137 214.704 383.455 214.704C386.761 214.704 389.597 214.063 391.965 212.78C394.383 211.497 396.356 209.746 397.885 207.526L398.033 207.304C399.76 204.837 401.018 201.927 401.807 198.572C402.597 195.168 402.991 191.616 402.991 187.916H404.101C404.101 191.419 403.707 194.971 402.917 198.572C402.177 202.173 400.845 205.331 398.921 208.044L398.699 208.34C397.121 210.56 395.098 212.361 392.631 213.742C390.165 215.074 387.18 215.74 383.677 215.74ZM470.48 215H469.222L462.044 197.684H437.328L430.15 215H428.892L449.02 166.16H450.352L470.48 215ZM437.772 196.648H461.6L449.686 167.492L437.772 196.648ZM489.123 215.74C485.275 215.74 481.97 215 479.207 213.52C476.494 211.991 474.792 209.746 474.101 206.786L475.211 206.268C475.853 209.031 477.431 211.127 479.947 212.558C482.463 213.989 485.596 214.704 489.345 214.704C493.292 214.704 496.4 213.915 498.669 212.336C500.988 210.708 502.147 208.537 502.147 205.824C502.147 203.949 501.531 202.371 500.297 201.088C499.113 199.805 496.893 198.819 493.637 198.128L485.201 196.278C481.797 195.538 479.355 194.403 477.875 192.874C476.445 191.295 475.729 189.445 475.729 187.324C475.729 185.4 476.321 183.698 477.505 182.218C478.689 180.689 480.317 179.48 482.389 178.592C484.461 177.704 486.805 177.26 489.419 177.26C493.218 177.26 496.277 178 498.595 179.48C500.914 180.96 502.419 183.303 503.109 186.51L502.073 187.102C501.432 184.043 500.026 181.823 497.855 180.442C495.734 179.011 492.922 178.296 489.419 178.296C487.002 178.296 484.856 178.691 482.981 179.48C481.107 180.22 479.627 181.256 478.541 182.588C477.456 183.871 476.913 185.351 476.913 187.028C476.913 188.903 477.53 190.555 478.763 191.986C480.046 193.367 482.217 194.403 485.275 195.094L493.859 197.018C497.362 197.807 499.804 198.917 501.185 200.348C502.616 201.779 503.331 203.604 503.331 205.824C503.331 207.847 502.739 209.623 501.555 211.152C500.421 212.632 498.793 213.767 496.671 214.556C494.55 215.345 492.034 215.74 489.123 215.74ZM524.533 215.74C520.685 215.74 517.38 215 514.617 213.52C511.904 211.991 510.202 209.746 509.511 206.786L510.621 206.268C511.263 209.031 512.841 211.127 515.357 212.558C517.873 213.989 521.006 214.704 524.755 214.704C528.702 214.704 531.81 213.915 534.079 212.336C536.398 210.708 537.557 208.537 537.557 205.824C537.557 203.949 536.941 202.371 535.707 201.088C534.523 199.805 532.303 198.819 529.047 198.128L520.611 196.278C517.207 195.538 514.765 194.403 513.285 192.874C511.855 191.295 511.139 189.445 511.139 187.324C511.139 185.4 511.731 183.698 512.915 182.218C514.099 180.689 515.727 179.48 517.799 178.592C519.871 177.704 522.215 177.26 524.829 177.26C528.628 177.26 531.687 178 534.005 179.48C536.324 180.96 537.829 183.303 538.519 186.51L537.483 187.102C536.842 184.043 535.436 181.823 533.265 180.442C531.144 179.011 528.332 178.296 524.829 178.296C522.412 178.296 520.266 178.691 518.391 179.48C516.517 180.22 515.037 181.256 513.951 182.588C512.866 183.871 512.323 185.351 512.323 187.028C512.323 188.903 512.94 190.555 514.173 191.986C515.456 193.367 517.627 194.403 520.685 195.094L529.269 197.018C532.772 197.807 535.214 198.917 536.595 200.348C538.026 201.779 538.741 203.604 538.741 205.824C538.741 207.847 538.149 209.623 536.965 211.152C535.831 212.632 534.203 213.767 532.081 214.556C529.96 215.345 527.444 215.74 524.533 215.74ZM563.274 177.26C566.678 177.26 569.662 178.025 572.228 179.554C574.842 181.083 576.865 183.303 578.296 186.214C579.776 189.075 580.516 192.504 580.516 196.5C580.516 200.496 579.776 203.949 578.296 206.86C576.865 209.721 574.842 211.917 572.228 213.446C569.662 214.975 566.678 215.74 563.274 215.74C559.87 215.74 556.86 214.975 554.246 213.446C551.68 211.917 549.658 209.721 548.178 206.86C546.698 203.949 545.958 200.496 545.958 196.5C545.958 192.504 546.698 189.075 548.178 186.214C549.658 183.303 551.68 181.083 554.246 179.554C556.86 178.025 559.87 177.26 563.274 177.26ZM563.274 178.296C560.116 178.296 557.329 179.036 554.912 180.516C552.494 181.947 550.595 184.019 549.214 186.732C547.832 189.445 547.142 192.701 547.142 196.5C547.142 200.249 547.832 203.505 549.214 206.268C550.595 208.981 552.494 211.078 554.912 212.558C557.329 213.989 560.116 214.704 563.274 214.704C566.431 214.704 569.218 213.989 571.636 212.558C574.053 211.078 575.928 208.981 577.26 206.268C578.641 203.505 579.332 200.249 579.332 196.5C579.332 192.701 578.641 189.445 577.26 186.732C575.928 184.019 574.053 181.947 571.636 180.516C569.218 179.036 566.431 178.296 563.274 178.296ZM605.108 177.26C607.575 177.26 609.795 177.655 611.768 178.444C613.742 179.233 615.394 180.393 616.726 181.922C618.108 183.402 619.094 185.227 619.686 187.398L618.65 187.916C617.861 184.857 616.282 182.489 613.914 180.812C611.546 179.135 608.611 178.296 605.108 178.296C602.099 178.296 599.386 179.036 596.968 180.516C594.6 181.947 592.726 184.019 591.344 186.732C589.963 189.445 589.272 192.701 589.272 196.5C589.272 200.249 589.938 203.505 591.27 206.268C592.652 208.981 594.502 211.078 596.82 212.558C599.188 213.989 601.877 214.704 604.886 214.704C607.205 214.704 609.351 214.285 611.324 213.446C613.347 212.607 615.024 211.423 616.356 209.894C617.738 208.365 618.601 206.564 618.946 204.492L619.982 204.862C619.588 207.082 618.65 209.006 617.17 210.634C615.74 212.262 613.964 213.52 611.842 214.408C609.721 215.296 607.402 215.74 604.886 215.74C601.63 215.74 598.744 214.975 596.228 213.446C593.712 211.917 591.714 209.721 590.234 206.86C588.804 203.949 588.088 200.496 588.088 196.5C588.088 192.504 588.828 189.075 590.308 186.214C591.788 183.303 593.811 181.083 596.376 179.554C598.942 178.025 601.852 177.26 605.108 177.26ZM630.003 170.748C629.51 170.748 629.115 170.6 628.819 170.304C628.523 170.008 628.375 169.613 628.375 169.12C628.375 168.627 628.523 168.232 628.819 167.936C629.115 167.64 629.51 167.492 630.003 167.492C630.496 167.492 630.891 167.64 631.187 167.936C631.483 168.232 631.631 168.627 631.631 169.12C631.631 169.613 631.483 170.008 631.187 170.304C630.891 170.6 630.496 170.748 630.003 170.748ZM630.595 178V215H629.411V178H630.595ZM666.97 190.136C666.97 186.485 665.958 183.599 663.936 181.478C661.913 179.357 659.002 178.296 655.204 178.296C652.096 178.296 649.382 178.987 647.064 180.368C644.794 181.7 643.092 183.92 641.958 187.028L640.996 186.288C642.13 183.229 643.906 180.96 646.324 179.48C648.79 178 651.75 177.26 655.204 177.26C657.966 177.26 660.31 177.778 662.234 178.814C664.158 179.801 665.613 181.256 666.6 183.18C667.636 185.104 668.154 187.423 668.154 190.136V209.228C668.154 212.78 669.609 214.556 672.52 214.556C673.605 214.556 674.444 214.359 675.036 213.964L674.962 215C674.271 215.395 673.383 215.592 672.298 215.592C671.558 215.592 670.768 215.419 669.93 215.074C669.091 214.729 668.376 214.087 667.784 213.15C667.241 212.163 666.97 210.708 666.97 208.784V205.38L667.488 204.936C667.142 207.353 666.18 209.376 664.602 211.004C663.072 212.583 661.198 213.767 658.978 214.556C656.807 215.345 654.587 215.74 652.318 215.74C649.851 215.74 647.73 215.395 645.954 214.704C644.178 213.964 642.821 212.928 641.884 211.596C640.946 210.264 640.478 208.636 640.478 206.712C640.478 203.949 641.39 201.779 643.216 200.2C645.09 198.621 647.73 197.511 651.134 196.87L667.192 193.762V194.798L651.948 197.758C648.494 198.399 645.904 199.46 644.178 200.94C642.5 202.371 641.662 204.245 641.662 206.564C641.662 209.179 642.574 211.201 644.4 212.632C646.274 214.013 648.963 214.704 652.466 214.704C653.946 214.704 655.5 214.482 657.128 214.038C658.805 213.594 660.384 212.903 661.864 211.966C663.393 210.979 664.626 209.746 665.564 208.266C666.501 206.737 666.97 204.911 666.97 202.79V190.136ZM683.755 168.01V205.676C683.755 208.636 684.372 210.881 685.605 212.41C686.839 213.939 688.787 214.704 691.451 214.704C692.734 214.704 693.918 214.482 695.003 214.038C696.089 213.594 697.075 212.903 697.963 211.966L698.555 212.928C697.815 213.717 696.804 214.383 695.521 214.926C694.288 215.469 692.931 215.74 691.451 215.74C689.478 215.74 687.825 215.37 686.493 214.63C685.161 213.841 684.175 212.706 683.533 211.226C682.892 209.697 682.571 207.847 682.571 205.676V168.38L683.755 168.01ZM698.037 178V179.036H675.171V178H698.037ZM708.109 168.01V205.676C708.109 208.636 708.726 210.881 709.959 212.41C711.192 213.939 713.141 214.704 715.805 214.704C717.088 214.704 718.272 214.482 719.357 214.038C720.442 213.594 721.429 212.903 722.317 211.966L722.909 212.928C722.169 213.717 721.158 214.383 719.875 214.926C718.642 215.469 717.285 215.74 715.805 215.74C713.832 215.74 712.179 215.37 710.847 214.63C709.515 213.841 708.528 212.706 707.887 211.226C707.246 209.697 706.925 207.847 706.925 205.676V168.38L708.109 168.01ZM722.391 178V179.036H699.525V178H722.391ZM729.946 170.748C729.453 170.748 729.058 170.6 728.762 170.304C728.466 170.008 728.318 169.613 728.318 169.12C728.318 168.627 728.466 168.232 728.762 167.936C729.058 167.64 729.453 167.492 729.946 167.492C730.44 167.492 730.834 167.64 731.13 167.936C731.426 168.232 731.574 168.627 731.574 169.12C731.574 169.613 731.426 170.008 731.13 170.304C730.834 170.6 730.44 170.748 729.946 170.748ZM730.538 178V215H729.354V178H730.538Z" fill="black"/>
<path d="M304.548 279H302.746L299.924 271.962H289.214L286.392 279H284.59L293.566 256.56H295.572L304.548 279ZM289.826 270.398H299.312L294.552 258.226L289.826 270.398ZM317.06 256.56C319.304 256.56 321.084 257.127 322.398 258.26C323.736 259.393 324.404 260.946 324.404 262.918C324.404 264.89 323.736 266.431 322.398 267.542C321.061 268.63 319.27 269.174 317.026 269.174L316.856 269.276H310.43V279H308.73V256.56H317.06ZM317.026 267.678C318.84 267.678 320.222 267.27 321.174 266.454C322.149 265.638 322.636 264.459 322.636 262.918C322.636 261.377 322.149 260.198 321.174 259.382C320.222 258.543 318.84 258.124 317.026 258.124H310.43V267.678H317.026ZM318.352 267.984L325.594 279H323.588L316.924 268.936L318.352 267.984ZM348.127 273.322C347.696 274.569 347.05 275.645 346.189 276.552C345.35 277.459 344.33 278.15 343.129 278.626C341.95 279.102 340.624 279.34 339.151 279.34C337.111 279.34 335.32 278.875 333.779 277.946C332.26 276.994 331.07 275.657 330.209 273.934C329.37 272.211 328.951 270.16 328.951 267.78C328.951 265.4 329.37 263.349 330.209 261.626C331.047 259.903 332.226 258.577 333.745 257.648C335.286 256.696 337.077 256.22 339.117 256.22C340.635 256.22 341.961 256.435 343.095 256.866C344.251 257.274 345.225 257.897 346.019 258.736C346.812 259.552 347.413 260.561 347.821 261.762L346.155 262.544C345.633 260.98 344.806 259.801 343.673 259.008C342.539 258.192 341.055 257.784 339.219 257.784C337.541 257.784 336.057 258.192 334.765 259.008C333.495 259.801 332.498 260.946 331.773 262.442C331.07 263.915 330.719 265.695 330.719 267.78C330.719 269.843 331.07 271.622 331.773 273.118C332.475 274.614 333.461 275.77 334.731 276.586C336 277.379 337.473 277.776 339.151 277.776C340.964 277.776 342.505 277.345 343.775 276.484C345.044 275.6 345.928 274.331 346.427 272.676L348.127 273.322ZM370.395 256.56V279H368.695V256.56H370.395ZM354.823 256.56V279H353.123V256.56H354.823ZM369.511 266.794V268.392H354.007V266.794H369.511ZM379.161 256.56V279H377.461V256.56H379.161ZM401.526 256.56V258.124H393.332V279H391.632V258.124H383.438V256.56H401.526ZM405.816 279V256.56H421.15V258.124H407.516V266.794H418.294V268.392H407.516V277.436H421.694V279H405.816ZM443.785 273.322C443.354 274.569 442.708 275.645 441.847 276.552C441.008 277.459 439.988 278.15 438.787 278.626C437.608 279.102 436.282 279.34 434.809 279.34C432.769 279.34 430.978 278.875 429.437 277.946C427.918 276.994 426.728 275.657 425.867 273.934C425.028 272.211 424.609 270.16 424.609 267.78C424.609 265.4 425.028 263.349 425.867 261.626C426.706 259.903 427.884 258.577 429.403 257.648C430.944 256.696 432.735 256.22 434.775 256.22C436.294 256.22 437.62 256.435 438.753 256.866C439.909 257.274 440.884 257.897 441.677 258.736C442.47 259.552 443.071 260.561 443.479 261.762L441.813 262.544C441.292 260.98 440.464 259.801 439.331 259.008C438.198 258.192 436.713 257.784 434.877 257.784C433.2 257.784 431.715 258.192 430.423 259.008C429.154 259.801 428.156 260.946 427.431 262.442C426.728 263.915 426.377 265.695 426.377 267.78C426.377 269.843 426.728 271.622 427.431 273.118C428.134 274.614 429.12 275.77 430.389 276.586C431.658 277.379 433.132 277.776 434.809 277.776C436.622 277.776 438.164 277.345 439.433 276.484C440.702 275.6 441.586 274.331 442.085 272.676L443.785 273.322ZM463.982 256.56V258.124H455.788V279H454.088V258.124H445.894V256.56H463.982ZM474.477 256.22C476.54 256.22 478.274 256.628 479.679 257.444C481.107 258.26 482.195 259.507 482.943 261.184L481.515 262.272C480.858 260.685 479.928 259.541 478.727 258.838C477.548 258.135 476.086 257.784 474.341 257.784C473.004 257.784 471.87 257.999 470.941 258.43C470.012 258.838 469.298 259.393 468.799 260.096C468.323 260.776 468.085 261.547 468.085 262.408C468.085 263.451 468.425 264.312 469.105 264.992C469.785 265.672 471.032 266.216 472.845 266.624L477.265 267.576C479.464 268.052 481.005 268.743 481.889 269.65C482.796 270.534 483.249 271.679 483.249 273.084C483.249 274.308 482.886 275.396 482.161 276.348C481.458 277.3 480.484 278.037 479.237 278.558C477.99 279.079 476.528 279.34 474.851 279.34C473.242 279.34 471.802 279.125 470.533 278.694C469.286 278.241 468.232 277.617 467.371 276.824C466.51 276.008 465.875 275.033 465.467 273.9L466.963 272.744C467.28 273.809 467.802 274.727 468.527 275.498C469.275 276.246 470.193 276.813 471.281 277.198C472.369 277.583 473.582 277.776 474.919 277.776C476.188 277.776 477.322 277.606 478.319 277.266C479.316 276.903 480.087 276.382 480.631 275.702C481.198 275.022 481.481 274.183 481.481 273.186C481.481 272.234 481.141 271.429 480.461 270.772C479.804 270.115 478.625 269.616 476.925 269.276L472.301 268.256C470.873 267.939 469.717 267.519 468.833 266.998C467.949 266.477 467.303 265.853 466.895 265.128C466.51 264.38 466.317 263.541 466.317 262.612C466.317 261.456 466.646 260.402 467.303 259.45C467.96 258.475 468.901 257.693 470.125 257.104C471.349 256.515 472.8 256.22 474.477 256.22Z" fill="black"/>
<path d="M337.843 128.62H408.563V131H335.123V18.8H337.843V128.62ZM448.678 131H445.788L429.298 91.22H372.518L356.028 131H353.138L399.378 18.8H402.438L448.678 131ZM373.538 88.84H428.278L400.908 21.86L373.538 88.84Z" fill="black"/>
</svg>
