<?xml version="1.0" encoding="utf-8"?>
<!-- Generator: Adobe Illustrator 28.1.0, SVG Export Plug-In . SVG Version: 6.00 Build 0)  -->
<svg version="1.1" id="Layer_1" xmlns="http://www.w3.org/2000/svg" xmlns:xlink="http://www.w3.org/1999/xlink" x="0px" y="0px"
	 viewBox="0 0 861 248" style="enable-background:new 0 0 861 248;" xml:space="preserve">
<style type="text/css">
	.st0{fill:#3C3C3C;}
	.st1{fill:none;stroke:#000000;stroke-width:2;stroke-linejoin:bevel;}
	.st2{fill:#787878;}
	.st3{clip-path:url(#SVGID_00000085251480452533367700000009742996845081054870_);fill:none;stroke:#000000;}
</style>
<path class="st0" d="M255.5,244h-2.9l-2.4-6.2h-10.2l-2.4,6.2h-2.9l8.7-22.4h3.2L255.5,244z M241.1,235.2h8.2l-4.1-11.1L241.1,235.2
	z M289,221.6c2.3,0,4.1,0.6,5.5,1.8s2.1,2.8,2.1,4.8c0,2-0.7,3.6-2.1,4.7c-1.4,1.1-3.2,1.7-5.5,1.7l-0.2,0.2h-5.5v9.3h-2.7v-22.4
	H289z M288.9,232.1c1.6,0,2.8-0.3,3.6-1c0.8-0.7,1.2-1.7,1.2-3c0-1.3-0.4-2.3-1.2-3c-0.8-0.7-2-1-3.6-1h-5.7v8H288.9z M290.5,232.7
	l7.4,11.3h-3.2l-6.5-9.8L290.5,232.7z M341.4,238.3c-0.5,1.3-1.2,2.4-2,3.3c-0.9,0.9-1.9,1.6-3.1,2.1c-1.2,0.5-2.5,0.7-3.9,0.7
	c-2.1,0-4-0.5-5.5-1.4c-1.5-1-2.7-2.3-3.6-4c-0.8-1.7-1.3-3.8-1.3-6.2s0.4-4.4,1.3-6.2c0.9-1.7,2.1-3,3.6-4c1.6-1,3.4-1.4,5.5-1.4
	c1.5,0,2.7,0.2,3.9,0.6c1.1,0.4,2.1,1,2.9,1.8c0.8,0.8,1.5,1.7,1.9,2.9l-2.7,1.3c-0.5-1.3-1.2-2.3-2.2-2.9c-0.9-0.7-2.1-1-3.6-1
	c-1.5,0-2.9,0.4-4,1.1c-1.2,0.7-2.1,1.7-2.7,3.1c-0.6,1.3-1,3-1,4.9c0,1.9,0.3,3.5,0.9,4.9c0.6,1.3,1.5,2.4,2.6,3.1
	c1.1,0.7,2.5,1.1,4,1.1c1.5,0,2.8-0.4,3.9-1.1c1.1-0.8,1.9-1.9,2.4-3.4L341.4,238.3z M384.6,221.6V244h-2.7v-22.4H384.6z
	 M369.7,221.6V244H367v-22.4H369.7z M383.1,231.4v2.5h-14.7v-2.5H383.1z M415.1,221.6V244h-2.7v-22.4H415.1z M458.6,221.6v2.6h-7.8
	V244h-2.7v-19.9h-7.8v-2.6H458.6z M483.7,244v-22.4h15.7v2.6h-13v7.2h10.1v2.5h-10.1v7.5H500v2.6H483.7z M543.4,238.3
	c-0.5,1.3-1.2,2.4-2,3.3c-0.9,0.9-1.9,1.6-3.1,2.1c-1.2,0.5-2.5,0.7-3.9,0.7c-2.1,0-4-0.5-5.5-1.4c-1.5-1-2.7-2.3-3.6-4
	c-0.8-1.7-1.3-3.8-1.3-6.2s0.4-4.4,1.3-6.2c0.9-1.7,2.1-3,3.6-4c1.6-1,3.4-1.4,5.5-1.4c1.5,0,2.7,0.2,3.9,0.6c1.1,0.4,2.1,1,2.9,1.8
	c0.8,0.8,1.5,1.7,1.9,2.9l-2.7,1.3c-0.5-1.3-1.2-2.3-2.2-2.9c-0.9-0.7-2.1-1-3.6-1c-1.5,0-2.9,0.4-4,1.1c-1.2,0.7-2.1,1.7-2.7,3.1
	c-0.6,1.3-1,3-1,4.9c0,1.9,0.3,3.5,0.9,4.9c0.6,1.3,1.5,2.4,2.6,3.1c1.1,0.7,2.5,1.1,4,1.1c1.5,0,2.8-0.4,3.9-1.1
	c1.1-0.8,1.9-1.9,2.4-3.4L543.4,238.3z M584.8,221.6v2.6H577V244h-2.7v-19.9h-7.8v-2.6H584.8z M616.1,221.2c2,0,3.7,0.4,5.1,1.2
	c1.4,0.8,2.6,2,3.6,3.5l-2.3,1.8c-0.8-1.5-1.8-2.5-2.9-3.1c-1-0.6-2.3-0.9-3.8-0.9c-1.2,0-2.2,0.2-3,0.5c-0.8,0.3-1.3,0.8-1.7,1.4
	c-0.4,0.5-0.5,1.2-0.5,1.9c0,0.8,0.2,1.5,0.7,2.1c0.5,0.6,1.5,1.1,3,1.4l4.9,1.1c2.2,0.5,3.6,1.2,4.5,2.2c0.9,1,1.3,2.1,1.3,3.6
	c0,1.3-0.4,2.4-1.1,3.4c-0.7,1-1.7,1.7-3,2.3c-1.3,0.5-2.8,0.8-4.6,0.8c-1.6,0-3.1-0.2-4.3-0.6c-1.2-0.5-2.3-1.1-3.2-1.8
	c-0.9-0.7-1.6-1.6-2.2-2.5l2.4-1.9c0.4,0.9,1,1.6,1.7,2.3s1.5,1.2,2.4,1.5c1,0.4,2.1,0.5,3.3,0.5c1.2,0,2.2-0.1,3-0.4
	c0.9-0.3,1.5-0.7,2-1.3c0.5-0.6,0.7-1.2,0.7-2c0-0.7-0.2-1.4-0.7-1.9c-0.5-0.6-1.4-1-2.7-1.3l-5.3-1.2c-1.4-0.3-2.5-0.7-3.4-1.3
	c-0.8-0.6-1.5-1.2-1.8-2c-0.4-0.8-0.5-1.6-0.5-2.5c0-1.2,0.3-2.3,1-3.3c0.7-1,1.6-1.8,2.9-2.4C612.9,221.5,614.4,221.2,616.1,221.2z
	"/>
<path d="M384,3l0.7-0.7L383,3H384z M397,16h1l-0.3-0.7L397,16z M384,96h-1l1,1V96z M477,96v1l0.7-1.7L477,96z M464,83l0.7-0.7
	L464,82V83z M397,83h-1l1,1V83z M383.3,3.7l13,13l1.4-1.4l-13-13L383.3,3.7z M385,96V3h-2v93H385z M477,95h-93v2h93V95z M463.3,83.7
	l13,13l1.4-1.4l-13-13L463.3,83.7z M464,82h-67v2h67V82z M398,83V16h-2v67H398z"/>
<path d="M477,61.8l-0.7,0.7l1.7-0.7H477z M477,3h1l-1-1V3z M418.2,3V2l-0.7,1.7L418.2,3z M431.2,16l-0.7,0.7l0.7,0.3V16z M464,16h1
	l-1-1V16z M464,48.8h-1l0.3,0.7L464,48.8z M464,67.2l0.7-0.7l-1.7,0.7H464z M477,80.2h1l-0.3-0.7L477,80.2z M477,96l-0.7,0.7L478,96
	H477z M464,83h-1l0.3,0.7L464,83z M399.8,3l0.7-0.7L399.8,2V3z M412.8,16v1l0.7-1.7L412.8,16z M384,3V2l-0.7,1.7L384,3z M397,16
	l-0.7,0.7L397,17V16z M478,61.8V3h-2v58.8H478z M477,2l-58.8,0v2L477,4V2z M431.9,15.3l-13-13l-1.4,1.4l13,13L431.9,15.3z M431.2,17
	H464v-2h-32.8V17z M463,16v32.8h2V16H463z M477.7,61.1l-13-13l-1.4,1.4l13,13L477.7,61.1z M463.3,67.9l13,13l1.4-1.4l-13-13
	L463.3,67.9z M478,96V80.2h-2V96H478z M463.3,83.7l13,13l1.4-1.4l-13-13L463.3,83.7z M463,67.2V83h2V67.2H463z M399.1,3.7l13,13
	l1.4-1.4l-13-13L399.1,3.7z M399.8,2H384v2h15.8V2z M383.3,3.7l13,13l1.4-1.4l-13-13L383.3,3.7z M397,17h15.8v-2H397V17z"/>
<path class="st1" d="M431.2,16L464,48.8v18.4L412.8,16H431.2z"/>
<path class="st2" d="M18.8,181.7h31.6v1.8H17V136h1.8V181.7z"/>
<path class="st2" d="M79.3,136l17.2,47.4h-1.9l-16.3-44.8L62,183.5h-2L77.3,136H79.3z"/>
<path class="st2" d="M139.5,136v1.8l-31.2,43.8h31.2v1.8h-33.4v-1.8l31.2-43.8h-31.2V136H139.5z"/>
<path class="st2" d="M182.6,136v1.8l-31.2,43.8h31.2v1.8h-33.4v-1.8l31.2-43.8h-31.2V136H182.6z"/>
<path class="st2" d="M211.5,136l17.3,47.4h-1.9l-16.4-44.8l-16.3,44.8h-2l17.3-47.4H211.5z"/>
<path class="st2" d="M267.5,148.4c0,2.6-0.8,5.2-2.4,7.2c-1.5,2.1-3.7,3.6-6.1,4.4l8.5,23.5h-2l-8.4-23c-0.7,0.1-1.3,0.2-2,0.2H234
	v-1.8h21.1c2.7-0.1,5.3-1.3,7.1-3.2c1.9-2,2.9-4.6,2.9-7.3c0-2.7-1-5.3-2.9-7.3c-1.9-2-4.4-3.1-7.1-3.2H234V136h21.1
	c1.6,0,3.2,0.3,4.7,0.9c1.5,0.6,2.9,1.5,4,2.7c1.1,1.1,2.1,2.5,2.7,4C267.2,145.1,267.5,146.8,267.5,148.4z"/>
<path class="st2" d="M288.6,139.2c3.6-2.1,7.7-3.2,11.9-3.2c4.2,0,8.3,1.1,11.9,3.2c3.6,2.1,6.6,5.1,8.6,8.6
	c2.1,3.6,3.2,7.7,3.2,11.9c0,4.2-1.1,8.3-3.2,11.9c-2.1,3.6-5,6.6-8.6,8.6c-3.6,2.1-7.7,3.2-11.9,3.2c-6.3,0-12.3-2.5-16.8-7
	s-7-10.5-7-16.8c0-4.2,1.1-8.3,3.2-11.9C282.1,144.3,285.1,141.3,288.6,139.2z M289.5,178.7c3.4,1.9,7.1,2.9,11,2.9s7.6-1,11-2.9
	c3.3-1.9,6.1-4.7,8-8c1.9-3.4,2.9-7.1,2.9-11c0-3.9-1-7.6-2.9-11c-1.9-3.3-4.7-6.1-8-8c-3.4-1.9-7.1-2.9-11-2.9s-7.6,1-11,2.9
	c-3.3,1.9-6.1,4.7-8,8c-1.9,3.3-2.9,7.1-2.9,11c0,3.9,1,7.7,2.9,11C283.5,174.1,286.2,176.8,289.5,178.7z"/>
<path class="st2" d="M328,136h33.4v1.8h-15.8v45.6h-1.8v-45.6H328V136z"/>
<path class="st2" d="M371,136h33.4v1.8h-15.8v45.6h-1.8v-45.6H371V136z"/>
<path class="st2" d="M416.8,183.5H415V136h1.8V183.5z"/>
<path class="st2" d="M479.1,177.9l2.4,2.4l-1.3,1.3l-2.2-2.2c-1.1,1.3-2.5,2.4-4.1,3.1c-1.6,0.7-3.3,1.1-5.1,1.1H460
	c-3.1,0-6.1-1.1-8.4-3.2c-2.3-2.1-3.7-4.9-4-8c-0.3-3.1,0.6-6.2,2.5-8.6c1.9-2.4,4.6-4.1,7.7-4.6l-2.7-2.7c-1.8-2.1-2.8-4.8-2.9-7.6
	c-0.1-2.8,0.8-5.5,2.5-7.7c1.7-2.2,4.1-3.8,6.8-4.4c2.7-0.7,5.5-0.4,8.1,0.8c2.5,1.2,4.6,3.2,5.8,5.7c1.2,2.5,1.6,5.3,1,8
	c-0.6,2.7-2.1,5.1-4.3,6.9c-2.2,1.7-4.9,2.7-7.7,2.7H462l15.8,15.8c1-1.6,1.5-3.5,1.5-5.4v-7.2h1.8v7.2
	C481.1,173.5,480.4,175.9,479.1,177.9z M468.7,181.7c1.5,0,3-0.3,4.4-0.9c1.4-0.6,2.6-1.6,3.5-2.7l-17.3-17.3
	c-2.7,0.1-5.2,1.3-7.1,3.2c-1.4,1.5-2.4,3.4-2.7,5.4c-0.4,2-0.1,4.1,0.7,6c0.8,1.9,2.1,3.5,3.9,4.6c1.7,1.1,3.7,1.7,5.8,1.7H468.7z
	 M456.3,155.1l3.8,3.8h4.2c1.4,0,2.8-0.3,4.1-0.8c1.3-0.5,2.4-1.3,3.4-2.2c1-1,1.7-2.1,2.2-3.4c0.6-1.4,0.9-3,0.9-4.5
	c-0.1-1.6-0.5-3.1-1.2-4.5s-1.7-2.6-3-3.5c-1.2-0.9-2.7-1.6-4.2-1.9c-1.5-0.3-3.1-0.3-4.6,0.1c-1.5,0.4-2.9,1.1-4.1,2.1
	c-1.2,1-2.2,2.2-2.8,3.7c-0.7,1.4-1,3-1,4.5C453.9,150.8,454.8,153.2,456.3,155.1L456.3,155.1z"/>
<path class="st2" d="M530.4,136l17.2,47.4h-1.9l-16.4-44.8l-16.3,44.8h-2l17.3-47.4H530.4z"/>
<path class="st2" d="M578.3,158.9c1.6,0,3.3,0.2,4.8,0.8c1.5,0.6,2.9,1.5,4.1,2.6c1.2,1.1,2.1,2.5,2.8,4c0.6,1.5,1,3.1,1,4.8
	c0,1.6-0.3,3.3-1,4.8c-0.6,1.5-1.6,2.9-2.8,4c-1.2,1.1-2.6,2-4.1,2.6c-1.5,0.6-3.2,0.9-4.8,0.8h-21.1v-1.8h21.1
	c2.8,0,5.5-1.1,7.4-3.1c2-2,3.1-4.6,3.1-7.4c0-1.4-0.2-2.7-0.8-4c-0.5-1.3-1.3-2.4-2.3-3.4c-1-1-2.1-1.8-3.4-2.3s-2.6-0.8-4-0.8
	h-8.8c-1.6,0-3.3-0.2-4.8-0.8c-1.5-0.6-2.9-1.5-4.1-2.6c-1.2-1.2-2.1-2.5-2.8-4c-0.6-1.5-1-3.2-1-4.8c0-1.7,0.3-3.3,1-4.8
	c0.6-1.5,1.6-2.9,2.8-4c1.2-1.2,2.6-2.1,4.1-2.6c1.5-0.6,3.2-0.9,4.8-0.8h18.3v1.8h-18.3c-2.7,0.1-5.3,1.3-7.1,3.2
	c-1.9,2-2.9,4.6-2.9,7.3c0,2.7,1,5.3,2.9,7.3c1.9,2,4.4,3.1,7.1,3.2L578.3,158.9z"/>
<path class="st2" d="M619,158.9c1.6,0,3.3,0.2,4.8,0.8c1.5,0.6,2.9,1.5,4.1,2.6c1.2,1.1,2.1,2.5,2.8,4c0.6,1.5,1,3.1,1,4.8
	c0,1.6-0.3,3.3-1,4.8c-0.6,1.5-1.6,2.9-2.8,4c-1.2,1.1-2.6,2-4.1,2.6c-1.5,0.6-3.2,0.9-4.8,0.8h-21.2v-1.8H619
	c2.8,0,5.5-1.1,7.4-3.1c2-2,3.1-4.6,3.1-7.4c0-1.4-0.2-2.7-0.8-4c-0.5-1.3-1.3-2.4-2.3-3.4c-1-1-2.1-1.8-3.4-2.3
	c-1.3-0.5-2.6-0.8-4-0.8h-8.8c-1.6,0-3.2-0.3-4.8-0.9s-2.9-1.5-4-2.7c-1.2-1.1-2.1-2.5-2.7-4s-0.9-3.1-0.9-4.7
	c0-1.6,0.3-3.2,0.9-4.7c0.6-1.5,1.5-2.9,2.7-4c1.1-1.1,2.5-2,4-2.7c1.5-0.6,3.1-0.9,4.7-0.9h18.3v1.8h-18.3
	c-2.7,0.1-5.3,1.3-7.1,3.2c-1.9,2-2.9,4.6-2.9,7.3c0,2.7,1,5.3,2.9,7.3c1.9,2,4.4,3.1,7.1,3.2L619,158.9z"/>
<path class="st2" d="M652,139.2c3.6-2.1,7.7-3.2,11.9-3.2s8.3,1.1,11.9,3.2c3.6,2.1,6.6,5.1,8.6,8.6c2.1,3.6,3.2,7.7,3.2,11.9
	c0,4.2-1.1,8.3-3.2,11.9c-2.1,3.6-5.1,6.6-8.6,8.6c-3.6,2.1-7.7,3.2-11.9,3.2c-3.1,0-6.2-0.6-9.1-1.8c-2.9-1.2-5.5-2.9-7.7-5.1
	c-2.2-2.2-4-4.8-5.1-7.7c-1.2-2.9-1.8-6-1.8-9.1c0-4.2,1.1-8.3,3.2-11.9C645.5,144.3,648.5,141.3,652,139.2z M652.9,178.7
	c3.4,1.9,7.1,2.9,11,2.9s7.6-1,11-2.9c3.3-1.9,6.1-4.7,8-8c1.9-3.4,2.9-7.1,2.9-11c0-3.9-1-7.6-2.9-11c-1.9-3.3-4.7-6.1-8-8
	c-3.4-1.9-7.1-2.9-11-2.9c-3.9,0-7.6,1-11,2.9c-3.3,1.9-6.1,4.7-8,8c-1.9,3.3-2.9,7.1-2.9,11c0,3.9,1,7.7,2.9,11
	C646.8,174.1,649.6,176.8,652.9,178.7z"/>
<path class="st2" d="M721,181.7c2.9,0,5.8-0.6,8.5-1.7c2.6-1.1,5-2.7,7-4.7l1.3,1.3c-2.2,2.2-4.8,3.9-7.6,5.1c-3.4,1.4-7,2-10.7,1.8
	c-3.6-0.2-7.2-1.3-10.3-3.1c-3.6-2.1-6.6-5.1-8.6-8.6c-2.1-3.6-3.2-7.7-3.2-11.9c0-4.2,1.1-8.3,3.2-11.9c2.1-3.6,5.1-6.6,8.6-8.6
	c4.5-2.6,9.8-3.7,15-3c5.2,0.7,10,3.1,13.7,6.8l-1.3,1.3c-3.1-3.1-7-5.2-11.3-6c-4.3-0.8-8.7-0.4-12.7,1.3c-2.6,1.1-5,2.7-7,4.7
	c-2,2-3.6,4.4-4.7,7c-1.2,2.7-1.7,5.6-1.7,8.5c0,3.9,1,7.7,2.9,11c1.9,3.3,4.7,6.1,8,8C713.3,180.7,717.1,181.7,721,181.7z"/>
<path class="st2" d="M750.8,183.5H749V136h1.8V183.5z"/>
<path class="st2" d="M780.6,136l17.2,47.4H796l-16.3-44.8l-16.3,44.8h-2l17.3-47.4H780.6z"/>
<path class="st2" d="M798.8,136h33.4v1.8h-15.8v45.6h-1.8v-45.6h-15.8V136z"/>
<path class="st2" d="M844.6,183.5h-1.9V136h1.8L844.6,183.5z"/>
<g>
	<defs>
		<path id="SVGID_1_" d="M397,16L384,3v93h93l-13-13h-67V16z"/>
	</defs>
	<clipPath id="SVGID_00000114785104735436908860000010907724059297683343_">
		<use xlink:href="#SVGID_1_"  style="overflow:visible;"/>
	</clipPath>
	
		<line style="clip-path:url(#SVGID_00000114785104735436908860000010907724059297683343_);fill:none;stroke:#000000;" x1="384.3" y1="2.6" x2="478.3" y2="96.6"/>
	
		<line style="clip-path:url(#SVGID_00000114785104735436908860000010907724059297683343_);fill:none;stroke:#000000;" x1="382.3" y1="4.6" x2="476.3" y2="98.6"/>
	
		<line style="clip-path:url(#SVGID_00000114785104735436908860000010907724059297683343_);fill:none;stroke:#000000;" x1="380.3" y1="6.6" x2="474.3" y2="100.6"/>
	
		<line style="clip-path:url(#SVGID_00000114785104735436908860000010907724059297683343_);fill:none;stroke:#000000;" x1="378.3" y1="8.6" x2="472.3" y2="102.6"/>
	
		<line style="clip-path:url(#SVGID_00000114785104735436908860000010907724059297683343_);fill:none;stroke:#000000;" x1="376.3" y1="10.6" x2="470.3" y2="104.6"/>
	
		<line style="clip-path:url(#SVGID_00000114785104735436908860000010907724059297683343_);fill:none;stroke:#000000;" x1="374.3" y1="12.6" x2="468.3" y2="106.6"/>
	
		<line style="clip-path:url(#SVGID_00000114785104735436908860000010907724059297683343_);fill:none;stroke:#000000;" x1="372.3" y1="14.6" x2="466.3" y2="108.6"/>
	
		<line style="clip-path:url(#SVGID_00000114785104735436908860000010907724059297683343_);fill:none;stroke:#000000;" x1="370.3" y1="16.6" x2="464.3" y2="110.6"/>
	
		<line style="clip-path:url(#SVGID_00000114785104735436908860000010907724059297683343_);fill:none;stroke:#000000;" x1="368.3" y1="18.6" x2="462.3" y2="112.6"/>
	
		<line style="clip-path:url(#SVGID_00000114785104735436908860000010907724059297683343_);fill:none;stroke:#000000;" x1="366.3" y1="20.6" x2="460.3" y2="114.6"/>
	
		<line style="clip-path:url(#SVGID_00000114785104735436908860000010907724059297683343_);fill:none;stroke:#000000;" x1="364.3" y1="22.6" x2="458.3" y2="116.6"/>
	
		<line style="clip-path:url(#SVGID_00000114785104735436908860000010907724059297683343_);fill:none;stroke:#000000;" x1="362.3" y1="24.6" x2="456.3" y2="118.6"/>
	
		<line style="clip-path:url(#SVGID_00000114785104735436908860000010907724059297683343_);fill:none;stroke:#000000;" x1="360.3" y1="26.6" x2="454.3" y2="120.6"/>
	
		<line style="clip-path:url(#SVGID_00000114785104735436908860000010907724059297683343_);fill:none;stroke:#000000;" x1="358.3" y1="28.6" x2="452.3" y2="122.6"/>
	
		<line style="clip-path:url(#SVGID_00000114785104735436908860000010907724059297683343_);fill:none;stroke:#000000;" x1="356.3" y1="30.6" x2="450.3" y2="124.6"/>
	
		<line style="clip-path:url(#SVGID_00000114785104735436908860000010907724059297683343_);fill:none;stroke:#000000;" x1="354.3" y1="32.6" x2="448.3" y2="126.6"/>
	
		<line style="clip-path:url(#SVGID_00000114785104735436908860000010907724059297683343_);fill:none;stroke:#000000;" x1="352.3" y1="34.6" x2="446.3" y2="128.6"/>
	
		<line style="clip-path:url(#SVGID_00000114785104735436908860000010907724059297683343_);fill:none;stroke:#000000;" x1="350.3" y1="36.6" x2="444.3" y2="130.6"/>
	
		<line style="clip-path:url(#SVGID_00000114785104735436908860000010907724059297683343_);fill:none;stroke:#000000;" x1="348.3" y1="38.6" x2="442.3" y2="132.6"/>
	
		<line style="clip-path:url(#SVGID_00000114785104735436908860000010907724059297683343_);fill:none;stroke:#000000;" x1="346.3" y1="40.6" x2="440.3" y2="134.6"/>
	
		<line style="clip-path:url(#SVGID_00000114785104735436908860000010907724059297683343_);fill:none;stroke:#000000;" x1="344.3" y1="42.6" x2="438.3" y2="136.6"/>
	
		<line style="clip-path:url(#SVGID_00000114785104735436908860000010907724059297683343_);fill:none;stroke:#000000;" x1="342.3" y1="44.6" x2="436.3" y2="138.6"/>
	
		<line style="clip-path:url(#SVGID_00000114785104735436908860000010907724059297683343_);fill:none;stroke:#000000;" x1="340.3" y1="46.6" x2="434.3" y2="140.6"/>
	
		<line style="clip-path:url(#SVGID_00000114785104735436908860000010907724059297683343_);fill:none;stroke:#000000;" x1="338.3" y1="48.6" x2="432.3" y2="142.6"/>
</g>
</svg>
