<svg width="861" height="248" viewBox="0 0 861 248" fill="none" xmlns="http://www.w3.org/2000/svg">
<g clip-path="url(#clip0_105_212)">
<rect width="861" height="248" fill="white"/>
<path d="M255.517 244H252.627L250.247 237.778H240.081L237.701 244H234.845L243.583 221.56H246.813L255.517 244ZM241.067 235.228H249.261L245.147 224.178L241.067 235.228ZM288.978 221.56C291.267 221.56 293.103 222.149 294.486 223.328C295.869 224.507 296.56 226.105 296.56 228.122C296.56 230.139 295.857 231.715 294.452 232.848C293.069 233.959 291.233 234.514 288.944 234.514L288.706 234.684H283.198V244H280.478V221.56H288.978ZM288.944 232.134C290.553 232.134 291.743 231.805 292.514 231.148C293.307 230.468 293.704 229.459 293.704 228.122C293.704 226.785 293.307 225.787 292.514 225.13C291.743 224.45 290.553 224.11 288.944 224.11H283.198V232.134H288.944ZM290.508 232.678L297.92 244H294.69L288.23 234.174L290.508 232.678ZM341.378 238.254C340.902 239.523 340.222 240.623 339.338 241.552C338.454 242.459 337.411 243.15 336.21 243.626C335.031 244.102 333.739 244.34 332.334 244.34C330.203 244.34 328.356 243.875 326.792 242.946C325.251 241.994 324.049 240.657 323.188 238.934C322.349 237.211 321.93 235.16 321.93 232.78C321.93 230.4 322.349 228.349 323.188 226.626C324.049 224.903 325.251 223.577 326.792 222.648C328.356 221.696 330.181 221.22 332.266 221.22C333.717 221.22 335.009 221.424 336.142 221.832C337.275 222.217 338.239 222.807 339.032 223.6C339.848 224.371 340.494 225.323 340.97 226.456L338.284 227.714C337.785 226.422 337.06 225.447 336.108 224.79C335.179 224.11 333.966 223.77 332.47 223.77C330.951 223.77 329.614 224.133 328.458 224.858C327.302 225.561 326.395 226.581 325.738 227.918C325.103 229.255 324.786 230.876 324.786 232.78C324.786 234.661 325.092 236.282 325.704 237.642C326.316 238.979 327.189 240.011 328.322 240.736C329.455 241.439 330.793 241.79 332.334 241.79C333.83 241.79 335.133 241.416 336.244 240.668C337.355 239.897 338.159 238.753 338.658 237.234L341.378 238.254ZM384.611 221.56V244H381.891V221.56H384.611ZM369.719 221.56V244H366.999V221.56H369.719ZM383.149 231.352V233.902H368.427V231.352H383.149ZM415.087 221.56V244H412.367V221.56H415.087ZM458.604 221.56V224.11H450.784V244H448.064V224.11H440.244V221.56H458.604ZM483.748 244V221.56H499.49V224.11H486.468V231.352H496.6V233.902H486.468V241.45H500V244H483.748ZM543.419 238.254C542.943 239.523 542.263 240.623 541.379 241.552C540.495 242.459 539.453 243.15 538.251 243.626C537.073 244.102 535.781 244.34 534.375 244.34C532.245 244.34 530.397 243.875 528.833 242.946C527.292 241.994 526.091 240.657 525.229 238.934C524.391 237.211 523.971 235.16 523.971 232.78C523.971 230.4 524.391 228.349 525.229 226.626C526.091 224.903 527.292 223.577 528.833 222.648C530.397 221.696 532.222 221.22 534.307 221.22C535.758 221.22 537.05 221.424 538.183 221.832C539.317 222.217 540.28 222.807 541.073 223.6C541.889 224.371 542.535 225.323 543.011 226.456L540.325 227.714C539.827 226.422 539.101 225.447 538.149 224.79C537.22 224.11 536.007 223.77 534.511 223.77C532.993 223.77 531.655 224.133 530.499 224.858C529.343 225.561 528.437 226.581 527.779 227.918C527.145 229.255 526.827 230.876 526.827 232.78C526.827 234.661 527.133 236.282 527.745 237.642C528.357 238.979 529.23 240.011 530.363 240.736C531.497 241.439 532.834 241.79 534.375 241.79C535.871 241.79 537.175 241.416 538.285 240.668C539.396 239.897 540.201 238.753 540.699 237.234L543.419 238.254ZM584.816 221.56V224.11H576.996V244H574.276V224.11H566.456V221.56H584.816ZM616.138 221.22C618.11 221.22 619.81 221.628 621.238 222.444C622.666 223.237 623.856 224.416 624.808 225.98L622.53 227.748C621.691 226.297 620.739 225.277 619.674 224.688C618.631 224.076 617.362 223.77 615.866 223.77C614.665 223.77 613.667 223.94 612.874 224.28C612.103 224.62 611.537 225.073 611.174 225.64C610.811 226.184 610.63 226.807 610.63 227.51C610.63 228.303 610.879 229.006 611.378 229.618C611.877 230.207 612.874 230.672 614.37 231.012L619.232 232.1C621.385 232.576 622.881 233.301 623.72 234.276C624.581 235.228 625.012 236.418 625.012 237.846C625.012 239.115 624.649 240.249 623.924 241.246C623.221 242.221 622.224 242.98 620.932 243.524C619.64 244.068 618.121 244.34 616.376 244.34C614.744 244.34 613.305 244.125 612.058 243.694C610.834 243.241 609.78 242.64 608.896 241.892C608.012 241.144 607.287 240.305 606.72 239.376L609.1 237.438C609.531 238.299 610.086 239.059 610.766 239.716C611.446 240.373 612.262 240.883 613.214 241.246C614.189 241.609 615.299 241.79 616.546 241.79C617.702 241.79 618.699 241.654 619.538 241.382C620.399 241.087 621.057 240.668 621.51 240.124C621.963 239.557 622.19 238.877 622.19 238.084C622.19 237.359 621.952 236.713 621.476 236.146C621 235.557 620.105 235.115 618.79 234.82L613.52 233.63C612.137 233.313 611.015 232.882 610.154 232.338C609.315 231.771 608.703 231.114 608.318 230.366C607.955 229.595 607.774 228.768 607.774 227.884C607.774 226.683 608.103 225.583 608.76 224.586C609.44 223.566 610.403 222.75 611.65 222.138C612.919 221.526 614.415 221.22 616.138 221.22Z" fill="black"/>
<path d="M384 3L384.707 2.29289L383 3H384ZM397 16H398L397.707 15.2929L397 16ZM384 96H383L384 97V96ZM477 96V97L477.707 95.2929L477 96ZM464 83L464.707 82.2929L464 82V83ZM397 83H396L397 84V83ZM383.293 3.70711L396.293 16.7071L397.707 15.2929L384.707 2.29289L383.293 3.70711ZM385 96V3H383V96H385ZM477 95H384V97H477V95ZM463.293 83.7071L476.293 96.7071L477.707 95.2929L464.707 82.2929L463.293 83.7071ZM464 82H397V84H464V82ZM398 83V16H396V83H398Z" fill="black"/>
<path d="M477 61.8076L476.293 62.5147L478 61.8076L477 61.8076ZM477 3.00001L478 3.00001L477 2.00001L477 3.00001ZM418.192 3L418.192 2L417.485 3.70711L418.192 3ZM431.192 16L430.485 16.7071L431.192 17L431.192 16ZM464 16H465L464 15L464 16ZM464 48.8076H463L463.293 49.5147L464 48.8076ZM464 67.1924L464.707 66.4853L463 67.1924H464ZM477 80.1924H478L477.707 79.4853L477 80.1924ZM477 96L476.293 96.7071L478 96H477ZM464 83H463L463.293 83.7071L464 83ZM399.808 3L400.515 2.29289L399.808 2L399.808 3ZM412.808 16L412.808 17L413.515 15.2929L412.808 16ZM384 3L384 2L383.293 3.70711L384 3ZM397 16L396.293 16.7071L397 17L397 16ZM478 61.8076L478 3.00001L476 3.00001L476 61.8076L478 61.8076ZM477 2.00001L418.192 2L418.192 4L477 4.00001L477 2.00001ZM431.899 15.2929L418.899 2.2929L417.485 3.70711L430.485 16.7071L431.899 15.2929ZM431.192 17L464 17L464 15L431.192 15L431.192 17ZM463 16V48.8076H465V16H463ZM477.707 61.1005L464.707 48.1005L463.293 49.5147L476.293 62.5147L477.707 61.1005ZM463.293 67.8995L476.293 80.8995L477.707 79.4853L464.707 66.4853L463.293 67.8995ZM478 96V80.1924H476V96H478ZM463.293 83.7071L476.293 96.7071L477.707 95.2929L464.707 82.2929L463.293 83.7071ZM463 67.1924V83H465V67.1924H463ZM399.1 3.70711L412.1 16.7071L413.515 15.2929L400.515 2.29289L399.1 3.70711ZM399.808 2L384 2L384 4L399.808 4L399.808 2ZM383.293 3.70711L396.293 16.7071L397.707 15.2929L384.707 2.29289L383.293 3.70711ZM397 17L412.808 17L412.808 15L397 15L397 17Z" fill="black"/>
<path d="M431.192 16L464 48.8076L464 67.1924L412.808 16L431.192 16Z" stroke="black" stroke-width="2" stroke-linejoin="bevel"/>
<mask id="mask0_105_212" style="mask-type:alpha" maskUnits="userSpaceOnUse" x="383" y="2" width="95" height="95">
<path fill-rule="evenodd" clip-rule="evenodd" d="M397 16L384 3V96H477L464 83H397V16Z" fill="black"/>
<path d="M384 3L384.707 2.29289L383 3H384ZM397 16H398L397.707 15.2929L397 16ZM384 96H383L384 97V96ZM477 96V97L477.707 95.2929L477 96ZM464 83L464.707 82.2929L464 82V83ZM397 83H396L397 84V83ZM383.293 3.70711L396.293 16.7071L397.707 15.2929L384.707 2.29289L383.293 3.70711ZM385 96V3H383V96H385ZM477 95H384V97H477V95ZM463.293 83.7071L476.293 96.7071L477.707 95.2929L464.707 82.2929L463.293 83.7071ZM464 82H397V84H464V82ZM398 83V16H396V83H398Z" fill="black"/>
</mask>
<g mask="url(#mask0_105_212)">
<line x1="384.354" y1="2.64645" x2="478.354" y2="96.6464" stroke="black"/>
<line x1="382.354" y1="4.64645" x2="476.354" y2="98.6464" stroke="black"/>
<line x1="380.354" y1="6.64645" x2="474.354" y2="100.646" stroke="black"/>
<line x1="378.354" y1="8.64645" x2="472.354" y2="102.646" stroke="black"/>
<line x1="376.354" y1="10.6464" x2="470.354" y2="104.646" stroke="black"/>
<line x1="374.354" y1="12.6464" x2="468.354" y2="106.646" stroke="black"/>
<line x1="372.354" y1="14.6464" x2="466.354" y2="108.646" stroke="black"/>
<line x1="370.354" y1="16.6464" x2="464.354" y2="110.646" stroke="black"/>
<line x1="368.354" y1="18.6464" x2="462.354" y2="112.646" stroke="black"/>
<line x1="366.354" y1="20.6464" x2="460.354" y2="114.646" stroke="black"/>
<line x1="364.354" y1="22.6464" x2="458.354" y2="116.646" stroke="black"/>
<line x1="362.354" y1="24.6464" x2="456.354" y2="118.646" stroke="black"/>
<line x1="360.354" y1="26.6464" x2="454.354" y2="120.646" stroke="black"/>
<line x1="358.354" y1="28.6464" x2="452.354" y2="122.646" stroke="black"/>
<line x1="356.354" y1="30.6464" x2="450.354" y2="124.646" stroke="black"/>
<line x1="354.354" y1="32.6464" x2="448.354" y2="126.646" stroke="black"/>
<line x1="352.354" y1="34.6464" x2="446.354" y2="128.646" stroke="black"/>
<line x1="350.354" y1="36.6464" x2="444.354" y2="130.646" stroke="black"/>
<line x1="348.354" y1="38.6464" x2="442.354" y2="132.646" stroke="black"/>
<line x1="346.354" y1="40.6464" x2="440.354" y2="134.646" stroke="black"/>
<line x1="344.354" y1="42.6464" x2="438.354" y2="136.646" stroke="black"/>
<line x1="342.354" y1="44.6464" x2="436.354" y2="138.646" stroke="black"/>
<line x1="340.354" y1="46.6464" x2="434.354" y2="140.646" stroke="black"/>
<line x1="338.354" y1="48.6464" x2="432.354" y2="142.646" stroke="black"/>
</g>
<path d="M18.83 181.652H50.41V183.482H17V136.032H18.83V181.652Z" fill="black"/>
<path d="M79.32 136.032L96.54 183.482H94.64L78.3 138.672L62.03 183.482H60.03L77.31 136.032H79.32Z" fill="black"/>
<path d="M139.53 136.032V137.862L108.36 181.652H139.53V183.482H106.12V181.652L137.3 137.862H106.12V136.032H139.53Z" fill="black"/>
<path d="M182.57 136.032V137.862L151.4 181.652H182.57V183.482H149.16V181.652L180.34 137.862H149.16V136.032H182.57Z" fill="black"/>
<path d="M211.48 136.032L228.74 183.482H226.84L210.47 138.672L194.2 183.482H192.2L209.49 136.032H211.48Z" fill="black"/>
<path d="M267.47 148.372C267.501 150.991 266.653 153.544 265.06 155.622C263.527 157.694 261.383 159.232 258.93 160.022L267.47 183.482H265.47L257.07 160.482C256.41 160.604 255.741 160.671 255.07 160.682H233.99V158.872H255.13C257.835 158.754 260.391 157.597 262.264 155.64C264.136 153.684 265.182 151.081 265.182 148.372C265.182 145.664 264.136 143.061 262.264 141.105C260.391 139.148 257.835 137.991 255.13 137.872H233.99V136.042H255.13C256.753 136.032 258.361 136.343 259.863 136.959C261.364 137.575 262.728 138.483 263.876 139.63C265.024 140.776 265.932 142.14 266.549 143.641C267.166 145.142 267.479 146.75 267.47 148.372Z" fill="black"/>
<path d="M288.65 139.212C292.268 137.129 296.37 136.033 300.545 136.033C304.72 136.033 308.822 137.129 312.44 139.212C316.028 141.289 319.008 144.272 321.08 147.862C323.17 151.478 324.27 155.581 324.27 159.758C324.27 163.934 323.17 168.037 321.08 171.652C319.01 175.242 316.03 178.223 312.44 180.293C308.836 182.407 304.728 183.509 300.55 183.482C294.258 183.477 288.225 180.975 283.776 176.526C279.327 172.077 276.825 166.044 276.82 159.753C276.788 155.574 277.89 151.464 280.01 147.862C282.082 144.272 285.062 141.289 288.65 139.212ZM289.53 178.732C292.882 180.64 296.673 181.643 300.53 181.643C304.387 181.643 308.178 180.64 311.53 178.732C314.868 176.834 317.632 174.07 319.53 170.732C321.438 167.38 322.441 163.59 322.441 159.732C322.441 155.875 321.438 152.085 319.53 148.732C317.631 145.395 314.867 142.632 311.53 140.732C308.176 138.83 304.386 137.831 300.53 137.831C296.674 137.831 292.884 138.83 289.53 140.732C286.202 142.659 283.443 145.431 281.532 148.768C279.621 152.104 278.627 155.887 278.65 159.732C278.623 163.594 279.631 167.393 281.57 170.732C283.457 174.065 286.207 176.828 289.53 178.732Z" fill="black"/>
<path d="M328.01 136.032H361.43V137.862H345.63V183.482H343.8V137.862H328.01V136.032Z" fill="black"/>
<path d="M371.05 136.032H404.47V137.862H388.67V183.482H386.84V137.862H371.05V136.032Z" fill="black"/>
<path d="M416.84 183.482H415.01V136.032H416.84V183.482Z" fill="black"/>
<path d="M479.15 177.852L481.52 180.222L480.24 181.512L478 179.272C476.871 180.613 475.458 181.687 473.864 182.415C472.269 183.143 470.533 183.508 468.78 183.482H459.97C456.875 183.517 453.882 182.383 451.587 180.306C449.292 178.23 447.865 175.364 447.591 172.281C447.317 169.199 448.216 166.126 450.108 163.677C452.001 161.229 454.748 159.584 457.8 159.072L455.09 156.372C453.299 154.247 452.288 151.573 452.224 148.794C452.16 146.015 453.046 143.298 454.737 141.091C456.428 138.885 458.822 137.323 461.522 136.662C464.221 136.001 467.066 136.283 469.584 137.459C472.103 138.636 474.144 140.637 475.37 143.132C476.596 145.626 476.933 148.465 476.326 151.177C475.719 153.89 474.204 156.314 472.031 158.048C469.859 159.782 467.16 160.722 464.38 160.712H462L477.8 176.502C478.777 174.889 479.292 173.038 479.29 171.152V163.902H481.12V171.152C481.122 173.529 480.438 175.855 479.15 177.852ZM468.74 181.652C470.252 181.675 471.749 181.358 473.122 180.725C474.494 180.091 475.707 179.158 476.67 177.992L459.39 160.702C456.708 160.805 454.174 161.962 452.34 163.922C450.927 165.41 449.982 167.279 449.619 169.298C449.257 171.318 449.494 173.399 450.302 175.285C451.109 177.171 452.451 178.779 454.162 179.91C455.873 181.042 457.879 181.648 459.93 181.652H468.74ZM456.34 155.082L460.13 158.872H464.34C465.738 158.874 467.12 158.585 468.4 158.022C469.657 157.511 470.8 156.752 471.76 155.792C472.72 154.832 473.478 153.69 473.99 152.432C474.609 150.999 474.9 149.445 474.842 147.884C474.784 146.323 474.378 144.795 473.654 143.411C472.93 142.027 471.906 140.822 470.657 139.885C469.408 138.947 467.966 138.3 466.435 137.991C464.904 137.682 463.323 137.719 461.808 138.099C460.293 138.479 458.882 139.192 457.678 140.187C456.474 141.182 455.507 142.433 454.848 143.849C454.19 145.265 453.855 146.811 453.87 148.372C453.866 150.839 454.758 153.224 456.38 155.082H456.34Z" fill="black"/>
<path d="M530.39 136.032L547.6 183.482H545.74L529.37 138.672L513.1 183.482H511.1L528.38 136.032H530.39Z" fill="black"/>
<path d="M578.33 158.872C579.976 158.826 581.614 159.109 583.148 159.706C584.681 160.304 586.08 161.203 587.26 162.35C588.441 163.497 589.379 164.869 590.02 166.386C590.661 167.902 590.991 169.531 590.991 171.177C590.991 172.824 590.661 174.453 590.02 175.969C589.379 177.485 588.441 178.858 587.26 180.005C586.08 181.152 584.681 182.051 583.148 182.649C581.614 183.246 579.976 183.529 578.33 183.482H557.19V181.652H578.33C581.116 181.647 583.786 180.538 585.756 178.568C587.726 176.598 588.835 173.928 588.84 171.142C588.863 169.765 588.602 168.397 588.072 167.126C587.542 165.854 586.755 164.706 585.76 163.752C584.792 162.769 583.634 161.991 582.357 161.467C581.08 160.943 579.71 160.683 578.33 160.702H569.52C567.871 160.749 566.229 160.465 564.691 159.866C563.153 159.268 561.752 158.367 560.568 157.216C559.385 156.066 558.444 154.691 557.802 153.171C557.16 151.651 556.829 150.018 556.829 148.367C556.829 146.717 557.16 145.084 557.802 143.564C558.444 142.044 559.385 140.669 560.568 139.518C561.752 138.368 563.153 137.467 564.691 136.869C566.229 136.27 567.871 135.985 569.52 136.032H587.82V137.862H569.52C566.815 137.981 564.259 139.138 562.386 141.095C560.514 143.051 559.469 145.654 559.469 148.362C559.469 151.071 560.514 153.674 562.386 155.63C564.259 157.587 566.815 158.744 569.52 158.862L578.33 158.872Z" fill="black"/>
<path d="M619.03 158.872C620.676 158.826 622.314 159.109 623.848 159.706C625.382 160.304 626.78 161.203 627.961 162.35C629.141 163.497 630.079 164.869 630.72 166.386C631.361 167.902 631.691 169.531 631.691 171.177C631.691 172.824 631.361 174.453 630.72 175.969C630.079 177.485 629.141 178.858 627.961 180.005C626.78 181.152 625.382 182.051 623.848 182.649C622.314 183.246 620.676 183.529 619.03 183.482H597.88V181.652H619.03C621.814 181.645 624.482 180.534 626.45 178.565C628.417 176.595 629.525 173.927 629.53 171.142C629.553 169.765 629.292 168.397 628.762 167.126C628.232 165.854 627.445 164.706 626.45 163.752C625.484 162.769 624.328 161.991 623.053 161.467C621.778 160.942 620.409 160.682 619.03 160.702H610.22C608.591 160.731 606.974 160.425 605.469 159.802C603.964 159.179 602.602 158.254 601.47 157.082C600.31 155.943 599.394 154.58 598.777 153.076C598.16 151.572 597.855 149.958 597.88 148.332C597.875 146.712 598.191 145.107 598.809 143.61C599.428 142.113 600.338 140.753 601.485 139.609C602.632 138.465 603.995 137.56 605.495 136.946C606.994 136.333 608.6 136.022 610.22 136.032H628.52V137.862H610.22C607.515 137.981 604.959 139.138 603.087 141.095C601.214 143.051 600.168 145.654 600.168 148.362C600.168 151.071 601.214 153.674 603.087 155.63C604.959 157.587 607.515 158.744 610.22 158.862L619.03 158.872Z" fill="black"/>
<path d="M652.04 139.212C655.658 137.129 659.76 136.033 663.935 136.033C668.11 136.033 672.212 137.129 675.83 139.212C679.416 141.292 682.395 144.274 684.47 147.862C686.56 151.478 687.66 155.581 687.66 159.758C687.66 163.934 686.56 168.037 684.47 171.652C682.397 175.24 679.418 178.22 675.83 180.293C672.222 182.407 668.111 183.509 663.93 183.482C660.814 183.482 657.729 182.869 654.85 181.676C651.972 180.483 649.357 178.735 647.154 176.532C644.951 174.328 643.204 171.712 642.013 168.833C640.821 165.954 640.209 162.868 640.21 159.753C640.179 155.575 641.278 151.467 643.39 147.862C645.469 144.274 648.451 141.291 652.04 139.212ZM652.92 178.732C656.272 180.64 660.063 181.643 663.92 181.643C667.777 181.643 671.568 180.64 674.92 178.732C678.256 176.831 681.019 174.068 682.92 170.732C684.828 167.38 685.831 163.59 685.831 159.732C685.831 155.875 684.828 152.085 682.92 148.732C681.018 145.398 678.255 142.635 674.92 140.732C671.566 138.83 667.776 137.831 663.92 137.831C660.064 137.831 656.274 138.83 652.92 140.732C649.588 142.655 646.826 145.426 644.915 148.764C643.004 152.101 642.011 155.886 642.04 159.732C642.014 163.593 643.019 167.39 644.95 170.732C646.844 174.063 649.596 176.826 652.92 178.732Z" fill="black"/>
<path d="M720.97 181.652C723.879 181.665 726.761 181.086 729.44 179.952C732.067 178.857 734.447 177.245 736.44 175.212L737.73 176.562C735.555 178.737 732.977 180.466 730.14 181.652C726.77 183.051 723.123 183.656 719.481 183.421C715.84 183.185 712.302 182.114 709.14 180.292C705.552 178.22 702.573 175.24 700.5 171.652C698.41 168.037 697.31 163.934 697.31 159.757C697.31 155.581 698.41 151.478 700.5 147.862C702.575 144.274 705.554 141.292 709.14 139.212C713.658 136.575 718.925 135.517 724.111 136.205C729.297 136.893 734.106 139.288 737.78 143.012L736.49 144.302C733.421 141.204 729.493 139.098 725.214 138.259C720.935 137.419 716.502 137.883 712.49 139.592C709.879 140.686 707.503 142.272 705.49 144.262C703.5 146.278 701.912 148.654 700.81 151.262C699.658 153.948 699.069 156.841 699.08 159.762C699.058 163.624 700.066 167.421 702 170.762C703.901 174.098 706.664 176.861 710 178.762C713.336 180.681 717.122 181.678 720.97 181.652Z" fill="black"/>
<path d="M750.84 183.482H749.01V136.032H750.84V183.482Z" fill="black"/>
<path d="M780.64 136.032L797.86 183.482H795.96L779.63 138.672L763.36 183.482H761.36L778.65 136.032H780.64Z" fill="black"/>
<path d="M798.81 136.032H832.23V137.862H816.44V183.482H814.61V137.862H798.81V136.032Z" fill="black"/>
<path d="M844.6 183.482H842.74V136.032H844.57L844.6 183.482Z" fill="black"/>
</g>
<defs>
<clipPath id="clip0_105_212">
<rect width="861" height="248" fill="white"/>
</clipPath>
</defs>
</svg>
